<?xml version="1.0" encoding="UTF-8"?>
<svg xmlns="http://www.w3.org/2000/svg" xmlns:xlink="http://www.w3.org/1999/xlink" width="2401" height="2401" viewBox="0 0 2401 2401">

<path fill-rule="evenodd" fill="rgb(0%, 0%, 0%)" fill-opacity="1" d="M 752.136719 1107.019531 L 752.136719 1077.5 L 766.0625 1077.5 Z M 624.023438 1314.441406 C 589.523438 1314.441406 561.554688 1281.058594 561.554688 1239.878906 C 561.554688 1198.699219 589.523438 1165.320312 624.023438 1165.320312 L 624.023438 1135.339844 C 570.699219 1135.339844 527.472656 1182.148438 527.472656 1239.878906 C 527.472656 1297.621094 570.699219 1344.421875 624.023438 1344.421875 Z M 624.023438 1284.269531 C 603.484375 1284.269531 586.832031 1264.398438 586.832031 1239.878906 C 586.832031 1215.371094 603.484375 1195.488281 624.023438 1195.488281 Z M 1812.320312 1165.320312 C 1846.820312 1165.320312 1874.789062 1198.699219 1874.789062 1239.878906 C 1874.789062 1281.058594 1846.820312 1314.441406 1812.320312 1314.441406 L 1812.320312 1344.421875 C 1865.640625 1344.421875 1908.871094 1297.621094 1908.871094 1239.878906 C 1908.871094 1182.148438 1865.640625 1135.339844 1812.320312 1135.339844 Z M 1812.320312 1195.488281 C 1832.859375 1195.488281 1849.511719 1215.371094 1849.511719 1239.878906 C 1849.511719 1264.398438 1832.859375 1284.269531 1812.320312 1284.269531 Z M 1183.820312 1077.5 L 1030.640625 1402.265625 L 948.976562 1402.265625 L 1100.269531 1077.5 Z M 1088.230469 1402.265625 L 1239.519531 1077.5 L 1323.078125 1077.5 L 1169.898438 1402.265625 Z M 1227.480469 1402.265625 L 1378.78125 1077.5 L 1462.328125 1077.5 L 1309.148438 1402.265625 Z M 1366.738281 1402.265625 L 1518.03125 1077.5 L 1601.578125 1077.5 L 1448.398438 1402.265625 Z M 1505.988281 1402.265625 L 1657.28125 1077.5 L 1684.210938 1077.5 L 1684.210938 1197.558594 L 1587.660156 1402.265625 Z M 1645.238281 1402.265625 L 1684.210938 1318.628906 L 1684.210938 1402.265625 Z M 1044.570312 1077.5 L 891.390625 1402.265625 L 809.726562 1402.265625 L 961.015625 1077.5 Z M 905.316406 1077.5 L 752.136719 1402.265625 L 752.136719 1226.960938 L 821.761719 1077.5 Z M 624.023438 1402.265625 L 624.023438 1446.90625 L 1812.320312 1446.90625 L 1812.320312 1385.628906 C 1886.660156 1385.628906 1946.929688 1320.378906 1946.929688 1239.878906 C 1946.929688 1159.390625 1886.660156 1094.128906 1812.320312 1094.128906 L 1812.320312 1032.859375 L 624.023438 1032.859375 L 624.023438 1094.128906 C 549.679688 1094.128906 489.410156 1159.390625 489.410156 1239.878906 C 489.410156 1319.191406 547.917969 1383.710938 620.746094 1385.589844 C 621.835938 1385.621094 622.929688 1385.628906 624.023438 1385.628906 L 624.023438 1402.265625 "/>
<path fill-rule="evenodd" fill="rgb(100%, 100%, 100%)" fill-opacity="1" d="M 1546.558594 1131.5 C 1560.480469 1126.820312 1574.960938 1124.429688 1589.691406 1124.429688 C 1614.070312 1124.429688 1636.441406 1133.75 1654.160156 1150.460938 C 1673.199219 1168.390625 1683.25 1192.339844 1683.25 1218.460938 C 1683.25 1244.898438 1672.679688 1268.890625 1653.628906 1287.179688 C 1649.75 1290.910156 1645.648438 1294.320312 1641.359375 1297.429688 L 1643 1361.640625 L 1538.25 1351.628906 C 1533.96875 1353.140625 1529.53125 1354.300781 1524.949219 1355.078125 L 1525.058594 1357.011719 L 1515.171875 1356.160156 C 1513.738281 1356.230469 1512.289062 1356.269531 1510.839844 1356.269531 C 1504.101562 1356.269531 1497.550781 1355.53125 1491.261719 1354.101562 L 1480.640625 1353.191406 L 1480.871094 1358.761719 L 1383.089844 1350.140625 C 1373.101562 1353.960938 1362.421875 1355.960938 1351.351562 1355.960938 C 1333.539062 1355.960938 1317.011719 1350.769531 1302.929688 1341.289062 L 1280.269531 1358.050781 L 1280.128906 1361.179688 L 1276.558594 1360.789062 L 1246.511719 1383.019531 L 1228.230469 1355.460938 L 1188.601562 1351.089844 C 1179.269531 1352.941406 1169.71875 1353.78125 1160.121094 1353.78125 L 1157.480469 1353.78125 L 1108.558594 1349.339844 C 1099.609375 1351.941406 1090.269531 1353.320312 1080.648438 1353.320312 C 1073.199219 1353.320312 1064.78125 1352.46875 1056.839844 1351.671875 L 1048.21875 1358.050781 L 1048.078125 1361.179688 L 1044.511719 1360.789062 L 1014.460938 1383.019531 L 996.179688 1355.460938 L 963.804688 1351.890625 L 953.078125 1351 L 950.816406 1362.199219 L 844.589844 1353.089844 C 842.371094 1353.238281 840.136719 1353.320312 837.890625 1353.320312 C 827.917969 1353.320312 816.210938 1351.800781 806.238281 1350.921875 L 749.515625 1345.929688 L 753.214844 1289.101562 C 754.347656 1271.710938 755.265625 1254.140625 755.265625 1236.699219 C 755.265625 1222.199219 754.753906 1207.691406 753.828125 1193.21875 L 750.910156 1147.351562 L 794.835938 1133.839844 C 811.003906 1128.859375 827.835938 1125.671875 844.796875 1125.671875 C 851.429688 1125.671875 857.96875 1126.261719 864.347656 1127.449219 L 865.449219 1122.988281 L 961.492188 1131.300781 C 976.695312 1125.839844 992.617188 1123.03125 1008.941406 1123.03125 C 1022.429688 1123.03125 1035.398438 1125.75 1047.25 1131.109375 C 1060.421875 1127.71875 1073.949219 1125.671875 1087.558594 1125.671875 C 1100.878906 1125.671875 1113.820312 1128.050781 1125.839844 1132.921875 L 1129.320312 1132.390625 C 1149.378906 1129.339844 1169.640625 1127.691406 1189.921875 1127.691406 L 1205.128906 1127.691406 C 1216.769531 1124.609375 1228.769531 1123.03125 1240.988281 1123.03125 C 1261.890625 1123.03125 1281.539062 1129.558594 1297.710938 1142.300781 C 1311.148438 1132.050781 1326.890625 1125.890625 1343.789062 1124.351562 L 1343.949219 1121.878906 L 1385.429688 1125.648438 L 1385.691406 1116.421875 L 1496.511719 1126.488281 C 1501.789062 1125.441406 1507.269531 1124.890625 1512.929688 1124.890625 C 1524.851562 1124.890625 1536.160156 1127.191406 1546.558594 1131.5 "/>
<path fill-rule="nonzero" fill="rgb(0%, 0%, 0%)" fill-opacity="1" d="M 811.96875 1189.511719 C 824.074219 1185.789062 835.019531 1183.929688 844.796875 1183.929688 C 854.574219 1183.929688 862.878906 1186.539062 869.710938 1191.761719 C 876.539062 1196.988281 879.953125 1203.429688 879.953125 1211.089844 C 879.953125 1222.578125 873.539062 1231.679688 860.707031 1238.410156 C 872.710938 1243.269531 878.710938 1251.390625 878.710938 1262.78125 C 878.710938 1271.160156 874.3125 1278.628906 865.519531 1285.210938 C 856.722656 1291.78125 847.511719 1295.058594 837.890625 1295.058594 C 836.648438 1295.058594 827.800781 1294.339844 811.347656 1292.890625 C 812.796875 1270.640625 813.519531 1251.910156 813.519531 1236.699219 C 813.519531 1221.488281 813.003906 1205.761719 811.96875 1189.511719 Z M 858.996094 1213.261719 C 858.996094 1210.160156 857.472656 1207.550781 854.421875 1205.421875 C 851.367188 1203.300781 848.109375 1202.238281 844.640625 1202.238281 C 841.175781 1202.238281 837.476562 1202.859375 833.542969 1204.101562 C 833.957031 1216.519531 834.164062 1225.890625 834.164062 1232.199219 C 838.925781 1231.789062 844.253906 1229.640625 850.152344 1225.761719 C 856.050781 1221.878906 858.996094 1217.710938 858.996094 1213.261719 Z M 841.304688 1276.128906 C 844.71875 1276.128906 848.339844 1274.75 852.167969 1272.011719 C 855.996094 1269.269531 857.910156 1266.109375 857.910156 1262.539062 C 857.910156 1258.96875 855.6875 1255.839844 851.238281 1253.148438 C 846.789062 1250.460938 841.046875 1248.808594 834.007812 1248.191406 C 833.800781 1260.398438 833.59375 1269.550781 833.386719 1275.660156 C 835.25 1275.96875 837.890625 1276.128906 841.304688 1276.128906 "/>
<path fill-rule="nonzero" fill="rgb(0%, 0%, 0%)" fill-opacity="1" d="M 936.609375 1291.179688 L 933.039062 1269.609375 L 909.910156 1270.539062 L 904.011719 1299.71875 L 882.28125 1297.859375 L 910.066406 1185.320312 L 938.78125 1187.808594 L 959.113281 1293.039062 Z M 922.949219 1205.660156 L 913.171875 1253.929688 L 930.554688 1253.308594 Z M 922.949219 1205.660156 "/>
<path fill-rule="nonzero" fill="rgb(0%, 0%, 0%)" fill-opacity="1" d="M 971.53125 1294.128906 C 972.878906 1269.300781 973.550781 1247.148438 973.550781 1227.699219 C 973.550781 1208.238281 973.496094 1195.460938 973.394531 1189.359375 C 984.777344 1183.980469 996.625 1181.289062 1008.941406 1181.289062 C 1018.050781 1181.289062 1025.679688 1184.191406 1031.828125 1189.980469 C 1037.988281 1195.769531 1041.070312 1203.949219 1041.070312 1214.5 C 1041.070312 1226.710938 1032.429688 1238.460938 1015.148438 1249.738281 C 1024.558594 1261.539062 1034.191406 1274.519531 1044.019531 1288.699219 L 1029.121094 1299.71875 C 1022.601562 1289.890625 1010.910156 1273.851562 994.039062 1251.601562 C 993.726562 1267.539062 993.261719 1282.488281 992.640625 1296.460938 Z M 994.503906 1241.050781 C 1002.160156 1237.421875 1008.679688 1232.949219 1014.058594 1227.621094 C 1019.441406 1222.289062 1022.128906 1217.449219 1022.128906 1213.109375 C 1022.128906 1208.761719 1020.859375 1205.398438 1018.328125 1203.019531 C 1015.789062 1200.640625 1012.460938 1199.449219 1008.320312 1199.449219 C 1004.179688 1199.449219 999.625 1200.328125 994.660156 1202.089844 C 994.660156 1219.570312 994.605469 1232.558594 994.503906 1241.050781 "/>
<path fill-rule="nonzero" fill="rgb(0%, 0%, 0%)" fill-opacity="1" d="M 1054.730469 1189.511719 C 1066.839844 1185.789062 1077.78125 1183.929688 1087.558594 1183.929688 C 1097.339844 1183.929688 1105.640625 1186.539062 1112.46875 1191.761719 C 1119.300781 1196.988281 1122.710938 1203.429688 1122.710938 1211.089844 C 1122.710938 1222.578125 1116.300781 1231.679688 1103.46875 1238.410156 C 1115.46875 1243.269531 1121.46875 1251.390625 1121.46875 1262.78125 C 1121.46875 1271.160156 1117.070312 1278.628906 1108.28125 1285.210938 C 1099.480469 1291.78125 1090.269531 1295.058594 1080.648438 1295.058594 C 1079.410156 1295.058594 1070.558594 1294.339844 1054.109375 1292.890625 C 1055.558594 1270.640625 1056.28125 1251.910156 1056.28125 1236.699219 C 1056.28125 1221.488281 1055.761719 1205.761719 1054.730469 1189.511719 Z M 1101.761719 1213.261719 C 1101.761719 1210.160156 1100.230469 1207.550781 1097.179688 1205.421875 C 1094.128906 1203.300781 1090.871094 1202.238281 1087.398438 1202.238281 C 1083.941406 1202.238281 1080.238281 1202.859375 1076.300781 1204.101562 C 1076.71875 1216.519531 1076.921875 1225.890625 1076.921875 1232.199219 C 1081.679688 1231.789062 1087.011719 1229.640625 1092.910156 1225.761719 C 1098.808594 1221.878906 1101.761719 1217.710938 1101.761719 1213.261719 Z M 1084.058594 1276.128906 C 1087.480469 1276.128906 1091.101562 1274.75 1094.929688 1272.011719 C 1098.761719 1269.269531 1100.671875 1266.109375 1100.671875 1262.539062 C 1100.671875 1258.96875 1098.449219 1255.839844 1094 1253.148438 C 1089.550781 1250.460938 1083.808594 1248.808594 1076.769531 1248.191406 C 1076.558594 1260.398438 1076.359375 1269.550781 1076.148438 1275.660156 C 1078.011719 1275.96875 1080.648438 1276.128906 1084.058594 1276.128906 "/>
<path fill-rule="nonzero" fill="rgb(0%, 0%, 0%)" fill-opacity="1" d="M 1136.21875 1293.351562 C 1135.800781 1277.011719 1135.601562 1261.539062 1135.601562 1246.941406 C 1135.601562 1232.351562 1136.421875 1213.371094 1138.078125 1189.980469 C 1155.78125 1187.289062 1173.058594 1185.941406 1189.921875 1185.941406 L 1189.921875 1205.039062 C 1178.230469 1205.039062 1167.359375 1205.398438 1157.328125 1206.121094 C 1156.910156 1217.710938 1156.648438 1226.609375 1156.550781 1232.820312 C 1164.421875 1231.679688 1173.730469 1231.011719 1184.488281 1230.800781 L 1187.441406 1247.878906 C 1180.511719 1247.980469 1170.109375 1248.761719 1156.238281 1250.199219 C 1156.238281 1262.621094 1156.289062 1271.570312 1156.398438 1277.058594 C 1165.398438 1276.328125 1176.160156 1274.78125 1188.679688 1272.398438 L 1191.320312 1289.46875 C 1182.519531 1293.511719 1172.121094 1295.53125 1160.121094 1295.53125 L 1136.21875 1293.351562 "/>
<path fill-rule="nonzero" fill="rgb(0%, 0%, 0%)" fill-opacity="1" d="M 1203.578125 1294.128906 C 1204.929688 1269.300781 1205.601562 1247.148438 1205.601562 1227.699219 C 1205.601562 1208.238281 1205.550781 1195.460938 1205.441406 1189.359375 C 1216.828125 1183.980469 1228.679688 1181.289062 1240.988281 1181.289062 C 1250.101562 1181.289062 1257.730469 1184.191406 1263.878906 1189.980469 C 1270.039062 1195.769531 1273.121094 1203.949219 1273.121094 1214.5 C 1273.121094 1226.710938 1264.480469 1238.460938 1247.199219 1249.738281 C 1256.609375 1261.539062 1266.238281 1274.519531 1276.070312 1288.699219 L 1261.171875 1299.71875 C 1254.648438 1289.890625 1242.960938 1273.851562 1226.089844 1251.601562 C 1225.78125 1267.539062 1225.308594 1282.488281 1224.691406 1296.460938 Z M 1226.550781 1241.050781 C 1234.210938 1237.421875 1240.730469 1232.949219 1246.109375 1227.621094 C 1251.488281 1222.289062 1254.179688 1217.449219 1254.179688 1213.109375 C 1254.179688 1208.761719 1252.921875 1205.398438 1250.378906 1203.019531 C 1247.839844 1200.640625 1244.511719 1199.449219 1240.371094 1199.449219 C 1236.230469 1199.449219 1231.679688 1200.328125 1226.710938 1202.089844 C 1226.710938 1219.570312 1226.660156 1232.558594 1226.550781 1241.050781 "/>
<path fill-rule="nonzero" fill="rgb(0%, 0%, 0%)" fill-opacity="1" d="M 1359.890625 1224.898438 C 1361.230469 1219.828125 1361.898438 1215.589844 1361.898438 1212.179688 C 1361.898438 1208.761719 1360.96875 1205.941406 1359.109375 1203.71875 C 1357.25 1201.488281 1354.839844 1200.378906 1351.890625 1200.378906 C 1348.941406 1200.378906 1346.488281 1201.828125 1344.519531 1204.730469 C 1342.550781 1207.621094 1341.570312 1210.929688 1341.570312 1214.660156 C 1341.570312 1221.898438 1345.710938 1228.109375 1353.988281 1233.289062 C 1362.269531 1238.671875 1367.910156 1242.550781 1370.910156 1244.929688 C 1373.910156 1247.308594 1376.03125 1249.480469 1377.269531 1251.449219 C 1380.378906 1256.519531 1381.929688 1261.738281 1381.929688 1267.121094 C 1381.929688 1276.441406 1378.800781 1283.859375 1372.539062 1289.398438 C 1366.28125 1294.929688 1359.210938 1297.699219 1351.351562 1297.699219 C 1342.039062 1297.699219 1334.21875 1293.769531 1327.910156 1285.898438 C 1323.359375 1280.210938 1319.171875 1273.121094 1315.339844 1264.640625 L 1330.390625 1257.339844 C 1332.78125 1263.550781 1335.75 1268.800781 1339.320312 1273.101562 C 1342.890625 1277.390625 1346.691406 1279.539062 1350.730469 1279.539062 C 1353.320312 1279.539062 1355.640625 1278.710938 1357.710938 1277.058594 C 1359.78125 1275.398438 1360.820312 1272.890625 1360.820312 1269.53125 C 1360.820312 1266.171875 1359.519531 1263.039062 1356.941406 1260.140625 C 1354.351562 1257.238281 1350.878906 1254.289062 1346.539062 1251.289062 C 1342.191406 1248.289062 1338.828125 1245.828125 1336.449219 1243.921875 C 1334.070312 1242 1331.429688 1239.550781 1328.53125 1236.550781 C 1323.050781 1230.75 1320.308594 1223.328125 1320.308594 1214.269531 C 1320.308594 1205.21875 1323.460938 1197.609375 1329.769531 1191.449219 C 1336.089844 1185.300781 1343.589844 1182.21875 1352.28125 1182.21875 C 1360.96875 1182.21875 1368.289062 1185.578125 1374.238281 1192.308594 C 1380.191406 1199.03125 1383.171875 1205.941406 1383.171875 1213.03125 C 1383.171875 1220.121094 1381.820312 1226.199219 1379.128906 1231.269531 L 1359.890625 1224.898438 "/>
<path fill-rule="nonzero" fill="rgb(0%, 0%, 0%)" fill-opacity="1" d="M 1417.941406 1214.96875 L 1418.089844 1232.820312 L 1441.378906 1231.421875 C 1441.378906 1215.28125 1441.628906 1198.148438 1442.148438 1180.050781 L 1462.640625 1181.910156 C 1461.710938 1198.359375 1461.238281 1216.191406 1461.238281 1235.378906 C 1461.238281 1254.578125 1461.808594 1273.851562 1462.949219 1293.199219 L 1443.078125 1291.488281 C 1442.148438 1282.589844 1441.578125 1268.308594 1441.378906 1248.648438 L 1418.558594 1250.050781 C 1418.871094 1264.738281 1419.328125 1279.699219 1419.960938 1294.910156 L 1398.851562 1293.039062 C 1397.710938 1271.210938 1397.140625 1251.140625 1397.140625 1232.820312 C 1397.140625 1214.5 1397.550781 1198.671875 1398.378906 1185.320312 L 1418.871094 1187.191406 C 1418.25 1196.398438 1417.941406 1205.660156 1417.941406 1214.96875 "/>
<path fill-rule="nonzero" fill="rgb(0%, 0%, 0%)" fill-opacity="1" d="M 1510.839844 1298.011719 C 1500.949219 1298.011719 1492.621094 1293.589844 1485.851562 1284.738281 C 1479.070312 1275.890625 1475.679688 1262.441406 1475.679688 1244.378906 C 1475.679688 1226.328125 1479.378906 1211.609375 1486.78125 1200.21875 C 1494.179688 1188.839844 1502.890625 1183.148438 1512.929688 1183.148438 C 1522.96875 1183.148438 1531.320312 1187.601562 1538 1196.5 C 1544.671875 1205.398438 1548.011719 1218.800781 1548.011719 1236.699219 C 1548.011719 1254.601562 1544.28125 1269.300781 1536.828125 1280.78125 C 1529.378906 1292.269531 1520.71875 1298.011719 1510.839844 1298.011719 Z M 1513.089844 1201.621094 C 1508.53125 1201.621094 1504.601562 1205.628906 1501.289062 1213.648438 C 1497.980469 1221.671875 1496.320312 1231.761719 1496.320312 1243.921875 C 1496.320312 1256.078125 1497.75 1265.078125 1500.589844 1270.929688 C 1503.441406 1276.769531 1506.980469 1279.699219 1511.21875 1279.699219 C 1515.46875 1279.699219 1519.21875 1275.660156 1522.480469 1267.589844 C 1525.738281 1259.519531 1527.371094 1249.398438 1527.371094 1237.238281 C 1527.371094 1225.078125 1525.988281 1216.109375 1523.25 1210.308594 C 1520.511719 1204.519531 1517.121094 1201.621094 1513.089844 1201.621094 "/>
<path fill-rule="nonzero" fill="rgb(0%, 0%, 0%)" fill-opacity="1" d="M 1561.980469 1295.371094 C 1561.570312 1283.679688 1561.359375 1269.628906 1561.359375 1253.230469 C 1561.359375 1236.828125 1561.878906 1214.921875 1562.910156 1187.5 C 1571.601562 1184.289062 1580.53125 1182.679688 1589.691406 1182.679688 C 1598.839844 1182.679688 1607.019531 1186.070312 1614.210938 1192.851562 C 1621.398438 1199.628906 1625 1208.171875 1625 1218.460938 C 1625 1228.761719 1621.089844 1237.660156 1613.28125 1245.160156 C 1605.46875 1252.660156 1595.25 1258.171875 1582.621094 1261.691406 C 1582.621094 1273.28125 1582.78125 1285.179688 1583.089844 1297.390625 Z M 1598.070312 1234.21875 C 1601.839844 1229.769531 1603.730469 1224.800781 1603.730469 1219.320312 C 1603.730469 1213.828125 1602.308594 1209.378906 1599.460938 1205.96875 C 1596.621094 1202.550781 1593.441406 1200.851562 1589.921875 1200.851562 C 1588.988281 1200.851562 1586.871094 1201.101562 1583.550781 1201.621094 C 1583.039062 1216.210938 1582.730469 1230.339844 1582.621094 1244 C 1589.140625 1241.929688 1594.289062 1238.671875 1598.070312 1234.21875 "/>
<path fill-rule="evenodd" fill="rgb(0%, 0%, 0%)" fill-opacity="1" d="M 994.960938 973.921875 C 1008.5 978.941406 1023.390625 978.359375 1039.640625 972.371094 C 1048.339844 968.890625 1061.101562 961.730469 1078.121094 950.710938 C 1096.691406 938.71875 1110.421875 930.398438 1119.511719 925.761719 C 1165.539062 905.058594 1198.039062 894.808594 1216.988281 895.199219 C 1232.078125 895.589844 1263.988281 906.421875 1312.730469 927.5 C 1322.199219 931.75 1337.289062 940.070312 1357.988281 952.449219 C 1376.171875 963.089844 1389.699219 969.660156 1398.210938 972.371094 C 1410.789062 976.039062 1422.199219 977.199219 1432.828125 975.660156 C 1445.019531 973.71875 1455.660156 966.761719 1465.128906 954.769531 C 1473.449219 943.359375 1478.480469 930.589844 1480.410156 916.28125 C 1482.351562 901 1479.828125 888.429688 1473.058594 878.179688 C 1465.519531 866.578125 1453.328125 860.191406 1436.308594 859.609375 C 1435.148438 858.070312 1440.378906 862.320312 1452.171875 872.570312 C 1458.171875 877.410156 1460.300781 884.371094 1458.359375 893.460938 C 1457.199219 900.03125 1453.140625 904.480469 1445.988281 907.191406 C 1439.410156 909.710938 1432.25 910.289062 1424.320312 908.738281 C 1410.398438 906.21875 1386.421875 885.921875 1352.378906 848.199219 C 1321.820312 814.160156 1292.230469 799.078125 1263.410156 802.941406 C 1253.539062 803.910156 1245.421875 807.589844 1239.039062 813.578125 C 1237.878906 814.738281 1230.53125 822.671875 1216.988281 837.371094 C 1196.878906 812.03125 1176.570312 800.621094 1155.871094 802.941406 C 1130.921875 805.851562 1102.878906 825.191406 1071.941406 860.578125 C 1042.539062 893.851562 1015.070312 909.898438 989.738281 908.738281 C 980.261719 901.96875 975.8125 894.621094 976.199219 886.691406 C 976.199219 880.691406 979.101562 875.46875 984.710938 870.828125 C 991.476562 865.21875 995.347656 861.351562 996.507812 859.609375 C 980.648438 861.351562 969.042969 867.738281 961.5 878.179688 C 954.925781 888.039062 952.601562 899.839844 954.148438 913.378906 C 955.117188 926.53125 959.566406 938.910156 967.109375 950.128906 C 974.652344 961.921875 983.933594 969.859375 994.960938 973.921875 "/>
<path fill-rule="nonzero" fill="rgb(0%, 0%, 0%)" fill-opacity="1" d="M 1849.449219 897.191406 C 1836.628906 887.308594 1820.980469 870.558594 1802.609375 847.011719 C 1771.230469 806.699219 1755.660156 786.671875 1755.898438 787.058594 C 1737.519531 765.359375 1720.769531 750.371094 1705.628906 742.089844 C 1686.71875 731.421875 1667.921875 729.628906 1649.230469 736.71875 C 1661.101562 749.160156 1678.03125 769.269531 1699.859375 797.289062 C 1722.410156 826.339844 1738.941406 846.460938 1749.441406 857.789062 C 1767.730469 877.648438 1784.25 891.050781 1798.980469 897.890625 C 1816.679688 906 1833.46875 905.789062 1849.449219 897.191406 Z M 1943.359375 1084.191406 C 1931.160156 1095.578125 1916.921875 1095.21875 1900.648438 1083.101562 C 1889.589844 1074.890625 1883.488281 1065.789062 1882.5 1055.628906 C 1881.519531 1046.199219 1884.929688 1037.789062 1892.828125 1030.410156 C 1900.25 1023.511719 1908.71875 1020.851562 1918.25 1022.511719 C 1926.648438 1024 1934.101562 1028.539062 1940.761719 1036.039062 C 1947.328125 1043.390625 1951.121094 1051.371094 1952.101562 1060.089844 C 1953 1069.609375 1950.140625 1077.691406 1943.359375 1084.191406 Z M 1887.710938 968.519531 C 1871.390625 966.960938 1861.800781 969.390625 1859.011719 975.949219 C 1858.941406 978.75 1860.871094 982.269531 1864.640625 986.660156 C 1871.78125 994.71875 1875.070312 998.390625 1874.589844 997.589844 C 1866.421875 1022.160156 1867.679688 1047.199219 1878.230469 1072.839844 C 1883.699219 1085.859375 1891.238281 1095.519531 1900.941406 1101.820312 C 1911.839844 1109.070312 1924.878906 1111.109375 1939.988281 1108.03125 L 1965.679688 1085.488281 C 1971.808594 1072.589844 1972.421875 1060.921875 1967.511719 1050.289062 C 1963.808594 1042.300781 1956.03125 1033.601562 1944 1024.199219 C 1941.921875 1022.519531 1936.550781 1018.460938 1928.058594 1012 C 1921.160156 1007.058594 1915.710938 1002.839844 1911.789062 999.488281 C 1899.839844 989.199219 1891.820312 978.910156 1887.710938 968.519531 Z M 2022.308594 902.898438 C 2027.210938 910.398438 2028.75 917.921875 2026.769531 925.441406 C 2024.789062 932.320312 2020.398438 938.011719 2013.691406 942.429688 C 2006.910156 947.011719 1999.480469 949.191406 1991.398438 948.96875 C 1982.441406 948.910156 1974.589844 945.96875 1967.78125 940.070312 C 1958 932.101562 1953.738281 923.46875 1954.988281 914.191406 C 1956.171875 906.109375 1961.109375 899.300781 1969.808594 893.761719 C 1978.359375 888.378906 1987.46875 886.191406 1997.070312 887.289062 C 2007.871094 888.460938 2016.28125 893.628906 2022.308594 902.898438 Z M 1573.199219 901.519531 C 1583.429688 928.449219 1603.941406 944.710938 1634.910156 950.148438 C 1645.398438 951.960938 1659.878906 952.960938 1678.351562 953.160156 C 1703.148438 953.488281 1718.429688 953.851562 1724.429688 954.230469 L 1843.21875 961.839844 C 1851.699219 961.019531 1870.238281 957.289062 1899.019531 950.570312 C 1918.28125 945.960938 1934.199219 945.199219 1946.839844 948.210938 C 1951.410156 949.390625 1957.808594 951.539062 1966.140625 954.628906 C 1975.339844 958.210938 1981.75 960.589844 1985.429688 961.699219 C 2000.480469 966.140625 2012.871094 965.148438 2022.460938 958.800781 C 2036.75 949.328125 2044.558594 938.429688 2045.800781 926.109375 C 2046.980469 915.390625 2043.191406 905.160156 2034.371094 895.351562 C 2026.179688 886.011719 2015.851562 879.480469 2003.519531 875.75 C 1990.390625 871.710938 1978.558594 872.058594 1968.089844 876.878906 C 1961.539062 879.941406 1953.71875 886.519531 1944.550781 896.621094 C 1935.21875 907.289062 1927.960938 914.019531 1922.691406 916.761719 C 1915.738281 920.53125 1902.300781 921.851562 1882.21875 920.699219 C 1875.738281 920.398438 1867.339844 919.699219 1857.019531 918.609375 C 1845.019531 917.441406 1837.660156 916.820312 1835.019531 916.671875 C 1691.269531 906.171875 1603.988281 901.039062 1573.199219 901.519531 "/>
<path fill-rule="nonzero" fill="rgb(0%, 0%, 0%)" fill-opacity="1" d="M 720.527344 1613.996094 C 721.164062 1606.21875 721.53125 1602.007812 721.714844 1601.273438 C 722.996094 1597.15625 725.789062 1595.28125 730.183594 1595.644531 C 728.03125 1593.953125 726.0625 1593.585938 724.277344 1594.59375 C 722.675781 1595.464844 721.351562 1597.203125 720.390625 1599.808594 C 718.144531 1605.714844 718.191406 1610.425781 720.527344 1613.996094 Z M 710.871094 1568.417969 C 705.972656 1569.699219 703.640625 1569.972656 703.914062 1569.378906 C 704.691406 1570.0625 705.972656 1570.339844 707.664062 1570.15625 C 709.449219 1569.972656 710.503906 1569.425781 710.871094 1568.417969 Z M 719.566406 1567.640625 C 719.929688 1566.265625 719.429688 1565.671875 717.964844 1565.761719 C 715.492188 1565.761719 714.257812 1565.761719 714.347656 1565.761719 C 713.980469 1567.089844 714.53125 1567.730469 715.949219 1567.640625 C 718.46875 1567.640625 719.65625 1567.640625 719.566406 1567.640625 Z M 722.265625 1564.9375 C 722.171875 1564.9375 723.363281 1564.984375 725.878906 1565.074219 C 727.300781 1565.074219 727.847656 1564.433594 727.480469 1563.199219 C 725.238281 1563.199219 724.09375 1563.199219 724.003906 1563.199219 C 722.859375 1563.382812 722.265625 1563.976562 722.265625 1564.9375 Z M 856.214844 1524.574219 C 855.9375 1526.542969 857.402344 1527.460938 860.605469 1527.277344 L 860.605469 1523.796875 C 858.820312 1523.523438 857.359375 1523.796875 856.214844 1524.574219 Z M 852.734375 1526.316406 C 853.421875 1525.71875 853.789062 1524.53125 853.789062 1522.835938 C 853.695312 1521.144531 853.054688 1520.273438 851.910156 1520.273438 C 853.054688 1524.484375 853.332031 1526.496094 852.734375 1526.316406 Z M 856.214844 1521.097656 C 856.121094 1521.097656 858.183594 1520.824219 862.390625 1520.273438 L 862.390625 1514.140625 C 858.777344 1513.59375 856.535156 1514.003906 855.527344 1515.332031 C 854.566406 1516.566406 854.75 1518.488281 856.214844 1521.097656 Z M 854.476562 1510.664062 C 854.75 1510.894531 857.359375 1511.167969 862.390625 1511.441406 C 862.210938 1507.140625 861.933594 1504.851562 861.566406 1504.484375 C 860.332031 1504.210938 859.050781 1504.304688 857.816406 1504.761719 C 856.398438 1505.171875 855.253906 1505.402344 854.476562 1505.402344 Z M 854.476562 1501.785156 C 855.617188 1501.601562 857.222656 1501.695312 859.28125 1502.058594 C 860.882812 1502.335938 861.933594 1502.242188 862.390625 1501.785156 L 862.390625 1494.828125 C 855.847656 1493.914062 853.191406 1496.246094 854.476562 1501.785156 Z M 855.390625 1491.351562 C 855.207031 1491.167969 857.265625 1491.71875 861.566406 1493.089844 C 862.710938 1491.488281 863.03125 1489.886719 862.484375 1488.378906 C 861.980469 1487.140625 861.019531 1486.226562 859.691406 1485.722656 C 858.273438 1485.265625 857.082031 1485.492188 856.214844 1486.363281 C 855.207031 1487.371094 854.933594 1489.019531 855.390625 1491.351562 Z M 856.214844 1479.957031 C 856.578125 1481.46875 856.761719 1482.289062 856.855469 1482.472656 C 857.222656 1483.296875 857.90625 1483.617188 858.867188 1483.433594 C 859.875 1483.066406 860.46875 1482.199219 860.605469 1480.734375 C 860.789062 1479.132812 860.242188 1478.308594 858.867188 1478.21875 C 858.777344 1478.628906 858.457031 1478.996094 857.816406 1479.269531 C 856.898438 1479.546875 856.398438 1479.773438 856.214844 1479.957031 Z M 788.757812 1482.609375 C 776.082031 1480.734375 754.757812 1478.125 724.828125 1474.695312 C 747.066406 1480.78125 768.394531 1483.433594 788.757812 1482.609375 Z M 860.605469 1473.777344 C 864.449219 1480.140625 866.371094 1489.886719 866.371094 1503.113281 C 866.371094 1516.382812 864.449219 1526.132812 860.605469 1532.492188 C 855.527344 1533.5 847.425781 1533.683594 836.351562 1533.179688 C 824.730469 1532.539062 816.492188 1532.628906 811.550781 1533.453125 C 812.554688 1533.269531 799.972656 1537.617188 773.886719 1546.589844 C 753.15625 1553.636719 740.570312 1557.707031 736.222656 1558.761719 C 735.765625 1560.132812 736.359375 1560.683594 737.960938 1560.5 C 739.746094 1560.40625 740.617188 1560.730469 740.617188 1561.460938 C 740.386719 1562.972656 739.289062 1567.914062 737.414062 1576.195312 C 736.085938 1582.101562 735.398438 1587.363281 735.398438 1592.03125 C 734.941406 1594.777344 733.796875 1596.011719 731.921875 1595.644531 C 734.757812 1596.882812 736.910156 1599.03125 738.371094 1602.097656 C 739.699219 1604.84375 740.203125 1607.910156 739.839844 1611.203125 C 739.378906 1614.5 738.191406 1617.292969 736.222656 1619.488281 C 733.980469 1622.003906 731.050781 1623.378906 727.480469 1623.652344 C 725.695312 1623.835938 724.460938 1623.058594 723.730469 1621.273438 C 722.859375 1619.03125 722.035156 1617.75 721.351562 1617.519531 C 720.800781 1620.90625 721.714844 1623.195312 724.140625 1624.339844 C 725.378906 1624.980469 727.664062 1625.300781 730.960938 1625.390625 C 730.640625 1633.078125 732.929688 1650.882812 737.960938 1678.753906 C 736.453125 1679.574219 735.261719 1680.71875 734.484375 1682.277344 C 731.601562 1682.414062 727.984375 1681.496094 723.59375 1679.4375 C 718.695312 1677.011719 714.714844 1675.640625 711.691406 1675.273438 C 711.691406 1675.273438 706.890625 1675.273438 697.324219 1675.273438 C 691.878906 1675.273438 688.21875 1674.128906 686.339844 1671.796875 C 684.738281 1669.828125 683.503906 1665.296875 682.726562 1658.25 C 682.449219 1656.464844 682.128906 1653.582031 681.765625 1649.554688 C 681.488281 1645.984375 681.261719 1643.46875 681.125 1642.050781 C 677.1875 1615.507812 675.128906 1592.441406 674.945312 1572.855469 C 677.277344 1572.03125 680.894531 1571.710938 685.789062 1571.757812 C 692.609375 1571.941406 696.59375 1571.984375 697.734375 1571.894531 C 695.492188 1570.292969 692.335938 1569.699219 688.21875 1570.019531 C 681.261719 1570.660156 677.964844 1571.023438 678.425781 1571.117188 C 664.28125 1570.566406 651.972656 1565.351562 641.402344 1555.421875 C 631.148438 1545.855469 625.0625 1534.414062 623.1875 1521.097656 C 620.761719 1503.066406 625.15625 1488.515625 636.320312 1477.53125 C 646.433594 1467.691406 660.4375 1462.0625 678.425781 1460.644531 C 693.890625 1459.453125 715.308594 1461.054688 742.628906 1465.3125 C 779.285156 1471.03125 801.113281 1474.191406 808.070312 1474.695312 C 813.515625 1475.152344 822.304688 1474.878906 834.339844 1473.914062 C 845.414062 1472.910156 854.199219 1472.863281 860.605469 1473.777344 "/>
<path fill-rule="evenodd" fill="rgb(0%, 0%, 0%)" fill-opacity="1" d="M 472.609375 823.730469 C 473.21875 825.75 473.402344 828.558594 473.101562 831.949219 C 472.769531 836.351562 472.621094 839.148438 472.722656 840.21875 C 439.949219 845.121094 420.585938 847.761719 414.371094 847.96875 C 391.121094 849.019531 370.621094 844.949219 353.007812 835.820312 C 359.492188 835.410156 369.3125 835.101562 382.332031 834.820312 C 395.757812 834.410156 405.777344 834.039062 412.332031 833.5 C 440.21875 831.378906 459.351562 827.609375 469.589844 822.109375 Z M 512.457031 794.011719 C 512.789062 796.21875 518.730469 818.890625 529.9375 861.988281 C 537.152344 891.101562 544.695312 915.808594 552.574219 936.128906 C 563.675781 964.609375 572.886719 987.171875 580.273438 1003.671875 C 581.265625 1006.238281 583.855469 1011.191406 588.105469 1018.71875 C 592.40625 1026.789062 595.691406 1032.960938 597.898438 1037.359375 C 605.621094 1053.871094 607.871094 1065.75 604.777344 1073.390625 C 601.5625 1080.640625 596.542969 1085.558594 589.253906 1088.421875 C 582.164062 1091.210938 575.171875 1090.671875 568.210938 1086.929688 C 564.804688 1084.761719 558.269531 1073.289062 548.605469 1052.519531 C 519.546875 990.339844 501.449219 947.761719 494.1875 924.730469 C 478.78125 874.628906 476.585938 829.25 487.804688 788.210938 C 491.15625 785.441406 495.71875 784.511719 501.09375 785.539062 C 507.347656 786.191406 511.066406 789.03125 512.457031 794.011719 Z M 615.402344 833.078125 C 611.1875 831.160156 607.78125 826.78125 605.109375 820.101562 C 602.183594 812.941406 599.382812 808.390625 596.5 806.5 C 593.410156 807.210938 581.96875 810.539062 561.769531 816.621094 C 547.507812 820.46875 535.367188 822.578125 525.683594 822.960938 C 526.335938 821.109375 526.019531 818.230469 524.664062 814.460938 C 523.632812 811.019531 523.386719 808.011719 523.921875 805.761719 C 539.816406 800.761719 573.707031 789.679688 625.59375 772.53125 C 671.816406 757.410156 707.183594 746.101562 731.621094 738.75 L 801.507812 717.71875 C 801.507812 717.71875 801.773438 717.859375 802.558594 718.289062 C 809.140625 721.488281 813.308594 729.480469 814.992188 742.410156 C 815.359375 745.820312 815.808594 750.980469 816.21875 757.460938 C 816.496094 763.878906 816.84375 767.960938 817.058594 769.761719 C 754.195312 792.53125 704.378906 809.609375 667.675781 820.878906 C 635.964844 830.421875 618.695312 834.511719 615.402344 833.078125 "/>
<path fill-rule="nonzero" fill="rgb(0%, 0%, 0%)" fill-opacity="1" d="M 917.484375 1520.730469 L 930.0625 1520.730469 L 930.0625 1518.960938 C 928.585938 1518.960938 927.546875 1518.664062 926.941406 1518.058594 C 926.339844 1517.410156 926.042969 1516.320312 926.042969 1514.796875 L 926.042969 1495.269531 L 942.074219 1495.269531 L 942.074219 1514.796875 C 942.074219 1516.273438 941.707031 1517.363281 940.964844 1518.058594 C 940.324219 1518.664062 939.355469 1518.960938 938.054688 1518.960938 L 938.054688 1520.730469 L 950.632812 1520.730469 L 950.632812 1518.960938 C 949.203125 1518.960938 948.164062 1518.664062 947.511719 1518.058594 C 946.863281 1517.410156 946.542969 1516.320312 946.542969 1514.785156 L 946.542969 1474.699219 C 946.542969 1473.539062 946.886719 1472.6875 947.582031 1472.132812 C 948.234375 1471.625 949.238281 1471.363281 950.632812 1471.363281 L 950.632812 1469.589844 L 938.054688 1469.589844 L 938.054688 1471.363281 C 939.308594 1471.363281 940.277344 1471.625 940.964844 1472.132812 C 941.707031 1472.6875 942.074219 1473.550781 942.074219 1474.710938 L 942.074219 1493.492188 L 926.042969 1493.492188 L 926.042969 1474.710938 C 926.042969 1473.503906 926.363281 1472.640625 927.011719 1472.132812 C 927.664062 1471.625 928.679688 1471.363281 930.0625 1471.363281 L 930.0625 1469.589844 L 917.484375 1469.589844 L 917.484375 1471.363281 C 919.011719 1471.363281 920.074219 1471.625 920.675781 1472.132812 C 921.28125 1472.59375 921.574219 1473.445312 921.574219 1474.699219 L 921.574219 1514.785156 C 921.574219 1516.320312 921.234375 1517.410156 920.535156 1518.058594 C 919.933594 1518.664062 918.914062 1518.960938 917.484375 1518.960938 L 917.484375 1520.730469 "/>
<path fill-rule="nonzero" fill="rgb(0%, 0%, 0%)" fill-opacity="1" d="M 972.242188 1467.960938 L 968.082031 1469.730469 L 957.253906 1511.605469 C 956.472656 1514.65625 955.703125 1516.664062 954.972656 1517.644531 C 954.320312 1518.519531 953.375 1518.960938 952.121094 1518.960938 L 952.121094 1520.730469 L 961.734375 1520.730469 L 961.734375 1518.960938 C 960.019531 1518.960938 958.980469 1518.519531 958.613281 1517.632812 C 958.210938 1516.710938 958.339844 1514.949219 959.027344 1512.363281 L 961.59375 1502.078125 L 975.683594 1502.078125 L 978.460938 1514.027344 C 978.875 1515.921875 978.699219 1517.242188 977.90625 1517.988281 C 977.222656 1518.640625 975.945312 1518.960938 974.101562 1518.960938 L 974.101562 1520.730469 L 987.363281 1520.730469 L 987.363281 1518.960938 C 986.109375 1518.960938 985.164062 1518.566406 984.527344 1517.777344 C 983.828125 1517.042969 983.273438 1515.707031 982.859375 1513.757812 Z M 969.183594 1473.078125 L 975.210938 1500.019531 L 962.113281 1500.019531 L 968.839844 1474.660156 L 969.183594 1473.078125 "/>
<path fill-rule="nonzero" fill="rgb(0%, 0%, 0%)" fill-opacity="1" d="M 996.359375 1469.589844 L 996.359375 1471.363281 C 998.808594 1471.363281 1000.511719 1471.660156 1001.480469 1472.261719 C 1002.5 1472.960938 1003 1474.214844 1003 1476.023438 L 1003 1514.714844 C 1003 1516.15625 1002.5 1517.222656 1001.480469 1517.917969 C 1000.410156 1518.617188 998.714844 1518.960938 996.359375 1518.960938 L 996.359375 1520.730469 L 1014.128906 1520.730469 L 1014.128906 1518.960938 C 1011.71875 1518.960938 1010.011719 1518.617188 1009 1517.917969 C 1007.980469 1517.222656 1007.46875 1516.15625 1007.46875 1514.714844 L 1007.46875 1476.023438 C 1007.46875 1474.214844 1007.980469 1472.960938 1009 1472.261719 C 1009.921875 1471.660156 1011.628906 1471.363281 1014.128906 1471.363281 L 1014.128906 1469.589844 L 996.359375 1469.589844 "/>
<path fill-rule="nonzero" fill="rgb(0%, 0%, 0%)" fill-opacity="1" d="M 1023.878906 1520.730469 L 1037.289062 1520.730469 L 1037.289062 1518.960938 C 1035.398438 1518.960938 1034.109375 1518.546875 1033.410156 1517.71875 C 1032.761719 1516.972656 1032.441406 1515.707031 1032.441406 1513.898438 L 1032.441406 1495.339844 L 1037.96875 1495.339844 L 1048.511719 1520.730469 L 1058.398438 1520.730469 L 1058.398438 1518.960938 C 1056.398438 1518.960938 1054.898438 1518.722656 1053.878906 1518.261719 C 1052.769531 1517.800781 1051.878906 1516.925781 1051.179688 1515.625 L 1042.800781 1495.136719 C 1046.449219 1494.867188 1049.378906 1493.472656 1051.589844 1490.976562 C 1053.71875 1488.5625 1054.78125 1485.632812 1054.78125 1482.15625 C 1054.78125 1478.457031 1053.449219 1475.441406 1050.761719 1473.136719 C 1048 1470.773438 1044.371094 1469.589844 1039.890625 1469.589844 L 1023.878906 1469.589844 L 1023.878906 1471.363281 C 1025.230469 1471.363281 1026.21875 1471.660156 1026.859375 1472.261719 C 1027.609375 1472.960938 1027.96875 1474.070312 1027.96875 1475.597656 L 1027.96875 1513.886719 C 1027.96875 1515.554688 1027.609375 1516.828125 1026.859375 1517.703125 C 1026.171875 1518.546875 1025.179688 1518.960938 1023.878906 1518.960938 Z M 1032.441406 1493.386719 L 1032.441406 1475.585938 C 1032.441406 1474.023438 1032.691406 1472.914062 1033.199219 1472.261719 C 1033.660156 1471.660156 1034.46875 1471.363281 1035.621094 1471.363281 L 1039.640625 1471.363281 C 1042.601562 1471.363281 1045.019531 1472.308594 1046.910156 1474.199219 C 1048.898438 1476.1875 1049.890625 1478.824219 1049.890625 1482.097656 C 1049.890625 1485.195312 1049.191406 1487.785156 1047.808594 1489.851562 C 1046.25 1492.21875 1044.050781 1493.386719 1041.238281 1493.386719 L 1032.441406 1493.386719 "/>
<path fill-rule="nonzero" fill="rgb(0%, 0%, 0%)" fill-opacity="1" d="M 1127.128906 1506.261719 C 1125.46875 1510.421875 1123.390625 1513.554688 1120.890625 1515.683594 C 1118.871094 1517.445312 1116.839844 1518.320312 1114.800781 1518.320312 C 1110.28125 1518.320312 1106.691406 1516.074219 1104.070312 1511.59375 C 1101.621094 1507.351562 1100.390625 1501.78125 1100.390625 1494.902344 C 1100.390625 1487.738281 1101.429688 1481.851562 1103.511719 1477.226562 C 1105.679688 1472.558594 1108.539062 1470.230469 1112.101562 1470.230469 C 1114.921875 1470.136719 1117.691406 1471.539062 1120.410156 1474.460938 C 1122.03125 1476.164062 1123.890625 1478.777344 1126.019531 1482.285156 L 1127.199219 1481.730469 L 1122.699219 1468.800781 L 1118.878906 1470.464844 C 1117.910156 1469.769531 1116.921875 1469.28125 1115.910156 1469.011719 C 1114.710938 1468.644531 1113.371094 1468.457031 1111.890625 1468.457031 C 1107 1468.457031 1103 1471.070312 1099.910156 1476.28125 C 1097.011719 1481.269531 1095.570312 1487.488281 1095.570312 1494.925781 C 1095.570312 1503.414062 1097.199219 1510.09375 1100.460938 1514.9375 C 1103.640625 1519.609375 1107.898438 1521.9375 1113.210938 1521.9375 C 1116.71875 1521.9375 1119.699219 1520.707031 1122.140625 1518.261719 C 1124.449219 1515.859375 1126.480469 1512.089844 1128.230469 1506.960938 L 1127.128906 1506.261719 "/>
<path fill-rule="nonzero" fill="rgb(0%, 0%, 0%)" fill-opacity="1" d="M 1130.28125 1469.589844 L 1130.28125 1471.363281 C 1131.710938 1471.363281 1132.71875 1471.601562 1133.328125 1472.0625 C 1134.03125 1472.570312 1134.371094 1473.5625 1134.371094 1475.039062 L 1134.371094 1507.835938 C 1134.371094 1512.375 1135.609375 1515.921875 1138.101562 1518.460938 C 1140.410156 1520.777344 1143.320312 1521.9375 1146.828125 1521.9375 C 1150.878906 1521.9375 1154.058594 1520.707031 1156.378906 1518.261719 C 1158.78125 1515.800781 1159.96875 1512.46875 1159.96875 1508.246094 L 1159.96875 1475.039062 C 1159.96875 1473.5625 1160.339844 1472.570312 1161.078125 1472.0625 C 1161.691406 1471.601562 1162.761719 1471.363281 1164.339844 1471.363281 L 1164.339844 1469.589844 L 1153.28125 1469.589844 L 1153.28125 1471.363281 C 1154.980469 1471.363281 1156.191406 1471.601562 1156.878906 1472.0625 C 1157.671875 1472.570312 1158.058594 1473.5625 1158.058594 1475.050781 L 1158.058594 1508.34375 C 1158.058594 1512.277344 1156.96875 1515.269531 1154.808594 1517.304688 C 1153.199219 1518.828125 1151.261719 1519.597656 1149 1519.597656 C 1145.949219 1519.597656 1143.46875 1518.484375 1141.53125 1516.261719 C 1139.730469 1514.121094 1138.839844 1511.582031 1138.839844 1508.613281 L 1138.839844 1475.050781 C 1138.839844 1473.609375 1139.199219 1472.617188 1139.949219 1472.0625 C 1140.589844 1471.601562 1141.601562 1471.363281 1143 1471.363281 L 1143 1469.589844 L 1130.28125 1469.589844 "/>
<path fill-rule="nonzero" fill="rgb(0%, 0%, 0%)" fill-opacity="1" d="M 1173.621094 1520.871094 L 1191.941406 1520.871094 L 1191.941406 1519.101562 C 1189.160156 1519.101562 1187.320312 1518.863281 1186.398438 1518.402344 C 1185.328125 1517.894531 1184.800781 1516.808594 1184.800781 1515.140625 L 1184.800781 1475.597656 C 1184.800781 1474.070312 1185.171875 1473.007812 1185.910156 1472.402344 C 1186.691406 1471.800781 1188.019531 1471.507812 1189.859375 1471.507812 C 1191.660156 1471.507812 1193.371094 1472.570312 1194.980469 1474.699219 C 1195.949219 1475.9375 1197.300781 1478.363281 1199 1481.96875 L 1199.210938 1482.382812 L 1200.378906 1481.898438 L 1196.921875 1469.730469 L 1168.210938 1469.730469 L 1164.820312 1481.410156 L 1165.851562 1481.96875 L 1166.550781 1480.714844 C 1168.441406 1477.675781 1169.941406 1475.550781 1171.050781 1474.34375 C 1172.851562 1472.453125 1174.738281 1471.507812 1176.730469 1471.507812 C 1177.839844 1471.507812 1178.691406 1471.800781 1179.289062 1472.402344 C 1179.988281 1473.101562 1180.328125 1474.164062 1180.328125 1475.597656 L 1180.328125 1515.140625 C 1180.328125 1516.761719 1179.75 1517.847656 1178.609375 1518.402344 C 1177.671875 1518.863281 1176.019531 1519.101562 1173.621094 1519.101562 L 1173.621094 1520.871094 "/>
<path fill-rule="nonzero" fill="rgb(0%, 0%, 0%)" fill-opacity="1" d="M 1249.25 1489.214844 C 1248.78125 1487.277344 1248.410156 1485.054688 1248.140625 1482.570312 C 1247.949219 1480.667969 1247.878906 1479.011719 1247.929688 1477.582031 C 1247.929688 1475.644531 1248.371094 1474 1249.25 1472.664062 C 1250.320312 1471.234375 1251.75 1470.511719 1253.558594 1470.511719 C 1254.648438 1470.511719 1255.609375 1471.246094 1256.390625 1472.722656 C 1257.179688 1474.117188 1257.570312 1475.75 1257.570312 1477.640625 C 1257.570312 1479.675781 1256.878906 1481.660156 1255.488281 1483.601562 C 1254.101562 1485.632812 1252.019531 1487.5 1249.25 1489.214844 Z M 1256.839844 1516.027344 C 1255.78125 1516.855469 1254.691406 1517.503906 1253.578125 1517.964844 C 1252.429688 1518.4375 1251.199219 1518.675781 1249.910156 1518.675781 C 1247.328125 1518.675781 1245.171875 1517.398438 1243.46875 1514.84375 C 1241.710938 1512.21875 1240.828125 1508.757812 1240.828125 1504.453125 C 1240.828125 1502.335938 1241.410156 1500.136719 1242.570312 1497.878906 C 1243.578125 1495.941406 1244.808594 1494.394531 1246.238281 1493.234375 C 1247.53125 1497.761719 1249.101562 1502.007812 1250.941406 1505.976562 C 1252.660156 1509.535156 1254.621094 1512.882812 1256.839844 1516.027344 Z M 1258.628906 1492.570312 C 1260.28125 1492.570312 1261.441406 1492.960938 1262.089844 1493.753906 C 1262.679688 1494.488281 1262.988281 1495.800781 1262.988281 1497.703125 C 1262.988281 1500.46875 1262.730469 1503.058594 1262.21875 1505.457031 C 1261.628906 1508.269531 1260.71875 1510.742188 1259.53125 1512.871094 C 1257.589844 1509.773438 1255.898438 1506.675781 1254.46875 1503.589844 C 1252.671875 1499.664062 1251.121094 1495.527344 1249.828125 1491.1875 C 1253.890625 1488.929688 1256.820312 1486.625 1258.628906 1484.285156 C 1260.148438 1482.300781 1260.910156 1480.183594 1260.910156 1477.925781 C 1260.910156 1475.207031 1260.230469 1472.972656 1258.890625 1471.222656 C 1257.550781 1469.378906 1255.789062 1468.457031 1253.609375 1468.457031 C 1250.410156 1468.457031 1247.898438 1469.449219 1246.109375 1471.433594 C 1244.390625 1473.375 1243.53125 1475.960938 1243.53125 1479.191406 C 1243.53125 1480.761719 1243.671875 1482.453125 1243.941406 1484.25 C 1244.308594 1486.140625 1244.890625 1488.410156 1245.679688 1491.035156 C 1242.550781 1493.304688 1240.21875 1495.65625 1238.710938 1498.105469 C 1236.960938 1500.882812 1236.078125 1503.992188 1236.078125 1507.457031 C 1236.078125 1511.382812 1237.191406 1514.738281 1239.421875 1517.503906 C 1241.820312 1520.460938 1244.890625 1521.9375 1248.640625 1521.9375 C 1250.210938 1521.9375 1251.890625 1521.523438 1253.699219 1520.683594 C 1255.410156 1519.890625 1256.960938 1518.898438 1258.339844 1517.703125 C 1259.820312 1519.183594 1261.070312 1520.199219 1262.089844 1520.753906 C 1263.109375 1521.3125 1264.300781 1521.582031 1265.679688 1521.582031 C 1266.519531 1521.582031 1267.398438 1521.167969 1268.320312 1520.328125 C 1269.289062 1519.488281 1270.28125 1518.273438 1271.300781 1516.652344 L 1270.46875 1515.542969 C 1269.628906 1516.464844 1268.78125 1517.113281 1267.910156 1517.480469 C 1267.261719 1517.800781 1266.519531 1517.964844 1265.679688 1517.964844 C 1264.898438 1517.964844 1264.078125 1517.621094 1263.191406 1516.925781 C 1262.359375 1516.320312 1261.609375 1515.519531 1260.910156 1514.503906 C 1262.53125 1512.277344 1263.75 1509.597656 1264.578125 1506.449219 C 1265.359375 1503.53125 1265.761719 1500.527344 1265.761719 1497.429688 C 1265.761719 1495.71875 1266.039062 1494.488281 1266.578125 1493.753906 C 1267.230469 1492.960938 1268.371094 1492.570312 1269.988281 1492.570312 L 1269.988281 1490.800781 L 1258.628906 1490.800781 L 1258.628906 1492.570312 "/>
<path fill-rule="nonzero" fill="rgb(0%, 0%, 0%)" fill-opacity="1" d="M 1310.46875 1507.539062 L 1309.011719 1508.164062 L 1314.070312 1521.726562 C 1314.851562 1521.121094 1315.699219 1520.636719 1316.621094 1520.269531 C 1317.609375 1519.84375 1318.460938 1519.644531 1319.191406 1519.644531 C 1319.46875 1519.644531 1319.839844 1519.714844 1320.300781 1519.84375 C 1320.578125 1519.9375 1321.019531 1520.128906 1321.609375 1520.410156 C 1322.71875 1520.871094 1323.601562 1521.191406 1324.25 1521.382812 C 1325.410156 1521.746094 1326.511719 1521.9375 1327.570312 1521.9375 C 1330.941406 1521.9375 1333.789062 1520.800781 1336.089844 1518.53125 C 1338.789062 1515.992188 1340.140625 1512.445312 1340.140625 1507.917969 C 1340.140625 1503.660156 1338.730469 1500.113281 1335.921875 1497.289062 C 1333.800781 1495.160156 1331.089844 1493.589844 1327.820312 1492.570312 C 1323.449219 1491.09375 1320.371094 1489.640625 1318.621094 1488.210938 C 1316.179688 1486.234375 1314.960938 1483.527344 1314.960938 1480.125 C 1314.960938 1476.707031 1315.761719 1474.152344 1317.378906 1472.441406 C 1318.808594 1470.960938 1320.75 1470.230469 1323.199219 1470.230469 C 1325.691406 1470.230469 1328.210938 1471.386719 1330.75 1473.691406 C 1332.960938 1475.726562 1335.210938 1478.65625 1337.46875 1482.5 L 1338.511719 1481.730469 L 1333.929688 1468.917969 L 1331.449219 1470.230469 C 1331.019531 1470.417969 1330.609375 1470.441406 1330.199219 1470.300781 C 1329.921875 1470.253906 1329.460938 1470.074219 1328.808594 1469.757812 C 1327.941406 1469.34375 1327.191406 1469.046875 1326.589844 1468.871094 C 1325.621094 1468.597656 1324.578125 1468.457031 1323.480469 1468.457031 C 1319.558594 1468.457031 1316.410156 1469.816406 1314.050781 1472.535156 C 1312.101562 1474.886719 1311.128906 1477.558594 1311.128906 1480.5625 C 1311.128906 1484.996094 1312.808594 1488.613281 1316.179688 1491.425781 C 1318.339844 1493.269531 1321.550781 1494.949219 1325.789062 1496.472656 C 1329.058594 1497.585938 1331.53125 1499.039062 1333.191406 1500.847656 C 1335.128906 1502.941406 1336.089844 1505.621094 1336.089844 1508.910156 C 1336.089844 1512.703125 1335.148438 1515.625 1333.261719 1517.65625 C 1331.691406 1519.324219 1329.71875 1520.164062 1327.371094 1520.164062 C 1324 1520.164062 1320.671875 1518.792969 1317.390625 1516.050781 C 1314.578125 1513.675781 1312.261719 1510.835938 1310.46875 1507.539062 "/>
<path fill-rule="nonzero" fill="rgb(0%, 0%, 0%)" fill-opacity="1" d="M 1343.070312 1520.730469 L 1355.648438 1520.730469 L 1355.648438 1518.960938 C 1354.171875 1518.960938 1353.128906 1518.664062 1352.53125 1518.058594 C 1351.921875 1517.410156 1351.628906 1516.320312 1351.628906 1514.796875 L 1351.628906 1495.269531 L 1367.660156 1495.269531 L 1367.660156 1514.796875 C 1367.660156 1516.273438 1367.289062 1517.363281 1366.550781 1518.058594 C 1365.910156 1518.664062 1364.941406 1518.960938 1363.640625 1518.960938 L 1363.640625 1520.730469 L 1376.21875 1520.730469 L 1376.21875 1518.960938 C 1374.789062 1518.960938 1373.75 1518.664062 1373.101562 1518.058594 C 1372.449219 1517.410156 1372.128906 1516.320312 1372.128906 1514.785156 L 1372.128906 1474.699219 C 1372.128906 1473.539062 1372.46875 1472.6875 1373.171875 1472.132812 C 1373.820312 1471.625 1374.820312 1471.363281 1376.21875 1471.363281 L 1376.21875 1469.589844 L 1363.640625 1469.589844 L 1363.640625 1471.363281 C 1364.890625 1471.363281 1365.859375 1471.625 1366.550781 1472.132812 C 1367.289062 1472.6875 1367.660156 1473.550781 1367.660156 1474.710938 L 1367.660156 1493.492188 L 1351.628906 1493.492188 L 1351.628906 1474.710938 C 1351.628906 1473.503906 1351.949219 1472.640625 1352.601562 1472.132812 C 1353.25 1471.625 1354.269531 1471.363281 1355.648438 1471.363281 L 1355.648438 1469.589844 L 1343.070312 1469.589844 L 1343.070312 1471.363281 C 1344.589844 1471.363281 1345.660156 1471.625 1346.261719 1472.132812 C 1346.859375 1472.59375 1347.160156 1473.445312 1347.160156 1474.699219 L 1347.160156 1514.785156 C 1347.160156 1516.320312 1346.820312 1517.410156 1346.121094 1518.058594 C 1345.519531 1518.664062 1344.5 1518.960938 1343.070312 1518.960938 L 1343.070312 1520.730469 "/>
<path fill-rule="nonzero" fill="rgb(0%, 0%, 0%)" fill-opacity="1" d="M 1397.828125 1467.960938 L 1393.671875 1469.730469 L 1382.839844 1511.605469 C 1382.058594 1514.65625 1381.289062 1516.664062 1380.558594 1517.644531 C 1379.910156 1518.519531 1378.960938 1518.960938 1377.710938 1518.960938 L 1377.710938 1520.730469 L 1387.320312 1520.730469 L 1387.320312 1518.960938 C 1385.601562 1518.960938 1384.558594 1518.519531 1384.199219 1517.632812 C 1383.800781 1516.710938 1383.929688 1514.949219 1384.609375 1512.363281 L 1387.179688 1502.078125 L 1401.269531 1502.078125 L 1404.050781 1514.027344 C 1404.460938 1515.921875 1404.28125 1517.242188 1403.488281 1517.988281 C 1402.808594 1518.640625 1401.53125 1518.960938 1399.679688 1518.960938 L 1399.679688 1520.730469 L 1412.949219 1520.730469 L 1412.949219 1518.960938 C 1411.691406 1518.960938 1410.75 1518.566406 1410.109375 1517.777344 C 1409.410156 1517.042969 1408.859375 1515.707031 1408.441406 1513.757812 Z M 1394.769531 1473.078125 L 1400.800781 1500.019531 L 1387.699219 1500.019531 L 1394.421875 1474.660156 L 1394.769531 1473.078125 "/>
<path fill-rule="nonzero" fill="rgb(0%, 0%, 0%)" fill-opacity="1" d="M 1436.851562 1469.589844 L 1436.851562 1471.363281 C 1439.121094 1471.363281 1440.550781 1471.707031 1441.140625 1472.402344 C 1441.699219 1473.054688 1441.769531 1474.296875 1441.359375 1476.140625 L 1432.828125 1511.816406 L 1423.128906 1474.6875 C 1422.761719 1473.304688 1422.910156 1472.382812 1423.609375 1471.921875 C 1424.171875 1471.554688 1425.300781 1471.363281 1427 1471.363281 L 1427 1469.589844 L 1413.328125 1469.589844 L 1413.328125 1471.363281 C 1415.03125 1471.363281 1416.308594 1471.707031 1417.128906 1472.402344 C 1417.828125 1472.960938 1418.339844 1473.882812 1418.660156 1475.183594 L 1430.859375 1521.9375 L 1432.058594 1521.9375 L 1443.269531 1476.363281 C 1443.78125 1474.285156 1444.378906 1472.914062 1445.070312 1472.261719 C 1445.71875 1471.660156 1446.808594 1471.363281 1448.328125 1471.363281 L 1448.328125 1469.589844 L 1436.851562 1469.589844 "/>
<path fill-rule="nonzero" fill="rgb(0%, 0%, 0%)" fill-opacity="1" d="M 1450.019531 1520.730469 L 1479.558594 1520.730469 L 1482.609375 1508.164062 L 1481.371094 1507.539062 C 1479.660156 1511.535156 1477.578125 1514.429688 1475.128906 1516.238281 C 1472.679688 1518.046875 1469.609375 1518.960938 1465.921875 1518.960938 L 1462.390625 1518.960938 C 1460.808594 1518.960938 1459.691406 1518.566406 1458.988281 1517.777344 C 1458.339844 1516.996094 1458.019531 1515.742188 1458.019531 1514.039062 L 1458.019531 1494.984375 L 1462.941406 1494.984375 C 1465.351562 1494.984375 1467.179688 1495.703125 1468.429688 1497.136719 C 1469.761719 1498.695312 1470.441406 1501.035156 1470.441406 1504.121094 L 1472.140625 1504.121094 L 1472.140625 1484.203125 L 1470.441406 1484.203125 C 1470.441406 1487.429688 1469.761719 1489.769531 1468.429688 1491.199219 C 1467.269531 1492.441406 1465.449219 1493.070312 1462.941406 1493.070312 L 1458.019531 1493.070312 L 1458.019531 1475.902344 C 1458.019531 1474.226562 1458.339844 1473.042969 1458.988281 1472.34375 C 1459.640625 1471.695312 1460.738281 1471.363281 1462.320312 1471.363281 L 1466.121094 1471.363281 C 1470.128906 1471.363281 1473.371094 1472.652344 1475.820312 1475.21875 C 1477.199219 1476.753906 1478.578125 1479.191406 1479.96875 1482.5 L 1481.011719 1481.730469 L 1477.761719 1469.589844 L 1450.019531 1469.589844 L 1450.019531 1471.363281 C 1451.359375 1471.363281 1452.289062 1471.683594 1452.800781 1472.335938 C 1453.308594 1472.984375 1453.558594 1474.164062 1453.558594 1475.878906 L 1453.558594 1514.027344 C 1453.558594 1515.789062 1453.308594 1517.03125 1452.800781 1517.777344 C 1452.289062 1518.566406 1451.359375 1518.960938 1450.019531 1518.960938 L 1450.019531 1520.730469 "/>
<path fill-rule="nonzero" fill="rgb(0%, 0%, 0%)" fill-opacity="1" d="M 1487.789062 1507.539062 L 1486.339844 1508.164062 L 1491.398438 1521.726562 C 1492.179688 1521.121094 1493.03125 1520.636719 1493.949219 1520.269531 C 1494.929688 1519.84375 1495.78125 1519.644531 1496.519531 1519.644531 C 1496.800781 1519.644531 1497.171875 1519.714844 1497.628906 1519.84375 C 1497.910156 1519.9375 1498.351562 1520.128906 1498.941406 1520.410156 C 1500.050781 1520.871094 1500.929688 1521.191406 1501.578125 1521.382812 C 1502.730469 1521.746094 1503.828125 1521.9375 1504.898438 1521.9375 C 1508.269531 1521.9375 1511.121094 1520.800781 1513.421875 1518.53125 C 1516.121094 1515.992188 1517.460938 1512.445312 1517.460938 1507.917969 C 1517.460938 1503.660156 1516.058594 1500.113281 1513.238281 1497.289062 C 1511.128906 1495.160156 1508.421875 1493.589844 1505.148438 1492.570312 C 1500.769531 1491.09375 1497.699219 1489.640625 1495.949219 1488.210938 C 1493.5 1486.234375 1492.28125 1483.527344 1492.28125 1480.125 C 1492.28125 1476.707031 1493.089844 1474.152344 1494.710938 1472.441406 C 1496.140625 1470.960938 1498.078125 1470.230469 1500.519531 1470.230469 C 1503.019531 1470.230469 1505.539062 1471.386719 1508.078125 1473.691406 C 1510.289062 1475.726562 1512.539062 1478.65625 1514.789062 1482.5 L 1515.828125 1481.730469 L 1511.261719 1468.917969 L 1508.78125 1470.230469 C 1508.351562 1470.417969 1507.941406 1470.441406 1507.519531 1470.300781 C 1507.25 1470.253906 1506.789062 1470.074219 1506.140625 1469.757812 C 1505.261719 1469.34375 1504.519531 1469.046875 1503.921875 1468.871094 C 1502.949219 1468.597656 1501.910156 1468.457031 1500.808594 1468.457031 C 1496.878906 1468.457031 1493.738281 1469.816406 1491.371094 1472.535156 C 1489.421875 1474.886719 1488.449219 1477.558594 1488.449219 1480.5625 C 1488.449219 1484.996094 1490.128906 1488.613281 1493.5 1491.425781 C 1495.671875 1493.269531 1498.878906 1494.949219 1503.109375 1496.472656 C 1506.390625 1497.585938 1508.859375 1499.039062 1510.511719 1500.847656 C 1512.449219 1502.941406 1513.421875 1505.621094 1513.421875 1508.910156 C 1513.421875 1512.703125 1512.480469 1515.625 1510.578125 1517.65625 C 1509.011719 1519.324219 1507.050781 1520.164062 1504.699219 1520.164062 C 1501.328125 1520.164062 1497.988281 1518.792969 1494.71875 1516.050781 C 1491.910156 1513.675781 1489.589844 1510.835938 1487.789062 1507.539062 "/>
<path fill-rule="nonzero" fill="rgb(0%, 0%, 0%)" fill-opacity="1" d="M 1714.03125 1613.996094 C 1713.390625 1606.21875 1713.019531 1602.007812 1712.839844 1601.273438 C 1711.550781 1597.15625 1708.761719 1595.28125 1704.371094 1595.644531 C 1706.519531 1593.953125 1708.488281 1593.585938 1710.269531 1594.59375 C 1711.878906 1595.464844 1713.199219 1597.203125 1714.160156 1599.808594 C 1716.410156 1605.714844 1716.359375 1610.425781 1714.03125 1613.996094 Z M 1723.679688 1568.417969 C 1728.578125 1569.699219 1730.910156 1569.972656 1730.640625 1569.378906 C 1729.859375 1570.0625 1728.578125 1570.339844 1726.890625 1570.15625 C 1725.101562 1569.972656 1724.050781 1569.425781 1723.679688 1568.417969 Z M 1714.988281 1567.640625 C 1714.621094 1566.265625 1715.121094 1565.671875 1716.589844 1565.761719 C 1719.058594 1565.761719 1720.300781 1565.761719 1720.199219 1565.761719 C 1720.570312 1567.089844 1720.019531 1567.730469 1718.601562 1567.640625 C 1716.089844 1567.640625 1714.898438 1567.640625 1714.988281 1567.640625 Z M 1712.289062 1564.9375 C 1712.378906 1564.9375 1711.191406 1564.984375 1708.671875 1565.074219 C 1707.25 1565.074219 1706.699219 1564.433594 1707.070312 1563.199219 C 1709.308594 1563.199219 1710.460938 1563.199219 1710.550781 1563.199219 C 1711.691406 1563.382812 1712.289062 1563.976562 1712.289062 1564.9375 Z M 1578.339844 1524.574219 C 1578.609375 1526.542969 1577.148438 1527.460938 1573.941406 1527.277344 L 1573.941406 1523.796875 C 1575.730469 1523.523438 1577.191406 1523.796875 1578.339844 1524.574219 Z M 1581.820312 1526.316406 C 1581.128906 1525.71875 1580.761719 1524.53125 1580.761719 1522.835938 C 1580.859375 1521.144531 1581.5 1520.273438 1582.640625 1520.273438 C 1581.5 1524.484375 1581.21875 1526.496094 1581.820312 1526.316406 Z M 1578.339844 1521.097656 C 1578.429688 1521.097656 1576.371094 1520.824219 1572.160156 1520.273438 L 1572.160156 1514.140625 C 1575.78125 1513.59375 1578.019531 1514.003906 1579.019531 1515.332031 C 1579.988281 1516.566406 1579.800781 1518.488281 1578.339844 1521.097656 Z M 1580.078125 1510.664062 C 1579.800781 1510.894531 1577.191406 1511.167969 1572.160156 1511.441406 C 1572.339844 1507.140625 1572.621094 1504.851562 1572.980469 1504.484375 C 1574.21875 1504.210938 1575.5 1504.304688 1576.738281 1504.761719 C 1578.160156 1505.171875 1579.300781 1505.402344 1580.078125 1505.402344 Z M 1580.078125 1501.785156 C 1578.929688 1501.601562 1577.328125 1501.695312 1575.269531 1502.058594 C 1573.671875 1502.335938 1572.621094 1502.242188 1572.160156 1501.785156 L 1572.160156 1494.828125 C 1578.699219 1493.914062 1581.359375 1496.246094 1580.078125 1501.785156 Z M 1579.160156 1491.351562 C 1579.339844 1491.167969 1577.289062 1491.71875 1572.980469 1493.089844 C 1571.839844 1491.488281 1571.519531 1489.886719 1572.070312 1488.378906 C 1572.570312 1487.140625 1573.53125 1486.226562 1574.859375 1485.722656 C 1576.28125 1485.265625 1577.46875 1485.492188 1578.339844 1486.363281 C 1579.339844 1487.371094 1579.621094 1489.019531 1579.160156 1491.351562 Z M 1578.339844 1479.957031 C 1577.96875 1481.46875 1577.789062 1482.289062 1577.699219 1482.472656 C 1577.328125 1483.296875 1576.640625 1483.617188 1575.679688 1483.433594 C 1574.679688 1483.066406 1574.078125 1482.199219 1573.941406 1480.734375 C 1573.761719 1479.132812 1574.308594 1478.308594 1575.679688 1478.21875 C 1575.78125 1478.628906 1576.101562 1478.996094 1576.738281 1479.269531 C 1577.648438 1479.546875 1578.160156 1479.773438 1578.339844 1479.957031 Z M 1645.789062 1482.609375 C 1658.46875 1480.734375 1679.789062 1478.125 1709.71875 1474.695312 C 1687.480469 1480.78125 1666.160156 1483.433594 1645.789062 1482.609375 Z M 1573.941406 1473.777344 C 1570.101562 1480.140625 1568.179688 1489.886719 1568.179688 1503.113281 C 1568.179688 1516.382812 1570.101562 1526.132812 1573.941406 1532.492188 C 1579.019531 1533.5 1587.121094 1533.683594 1598.199219 1533.179688 C 1609.820312 1532.539062 1618.058594 1532.628906 1623 1533.453125 C 1622 1533.269531 1634.578125 1537.617188 1660.671875 1546.589844 C 1681.398438 1553.636719 1693.980469 1557.707031 1698.328125 1558.761719 C 1698.789062 1560.132812 1698.191406 1560.683594 1696.589844 1560.5 C 1694.808594 1560.40625 1693.941406 1560.730469 1693.941406 1561.460938 C 1694.160156 1562.972656 1695.261719 1567.914062 1697.140625 1576.195312 C 1698.46875 1582.101562 1699.148438 1587.363281 1699.148438 1592.03125 C 1699.609375 1594.777344 1700.75 1596.011719 1702.628906 1595.644531 C 1699.789062 1596.882812 1697.640625 1599.03125 1696.179688 1602.097656 C 1694.851562 1604.84375 1694.351562 1607.910156 1694.710938 1611.203125 C 1695.171875 1614.5 1696.359375 1617.292969 1698.328125 1619.488281 C 1700.570312 1622.003906 1703.5 1623.378906 1707.070312 1623.652344 C 1708.851562 1623.835938 1710.089844 1623.058594 1710.820312 1621.273438 C 1711.691406 1619.03125 1712.519531 1617.75 1713.199219 1617.519531 C 1713.75 1620.90625 1712.839844 1623.195312 1710.410156 1624.339844 C 1709.179688 1624.980469 1706.890625 1625.300781 1703.589844 1625.390625 C 1703.910156 1633.078125 1701.621094 1650.882812 1696.589844 1678.753906 C 1698.101562 1679.574219 1699.289062 1680.71875 1700.070312 1682.277344 C 1702.949219 1682.414062 1706.570312 1681.496094 1710.960938 1679.4375 C 1715.859375 1677.011719 1719.839844 1675.640625 1722.859375 1675.273438 C 1722.859375 1675.273438 1727.660156 1675.273438 1737.230469 1675.273438 C 1742.671875 1675.273438 1746.328125 1674.128906 1748.210938 1671.796875 C 1749.808594 1669.828125 1751.050781 1665.296875 1751.828125 1658.25 C 1752.101562 1656.464844 1752.421875 1653.582031 1752.789062 1649.554688 C 1753.058594 1645.984375 1753.289062 1643.46875 1753.429688 1642.050781 C 1757.359375 1615.507812 1759.421875 1592.441406 1759.609375 1572.855469 C 1757.269531 1572.03125 1753.660156 1571.710938 1748.761719 1571.757812 C 1741.941406 1571.941406 1737.960938 1571.984375 1736.820312 1571.894531 C 1739.058594 1570.292969 1742.21875 1569.699219 1746.328125 1570.019531 C 1753.289062 1570.660156 1756.589844 1571.023438 1756.128906 1571.117188 C 1770.269531 1570.566406 1782.578125 1565.351562 1793.148438 1555.421875 C 1803.398438 1545.855469 1809.488281 1534.414062 1811.359375 1521.097656 C 1813.789062 1503.066406 1809.398438 1488.515625 1798.230469 1477.53125 C 1788.121094 1467.691406 1774.109375 1462.0625 1756.128906 1460.644531 C 1740.660156 1459.453125 1719.238281 1461.054688 1691.921875 1465.3125 C 1655.269531 1471.03125 1633.441406 1474.191406 1626.480469 1474.695312 C 1621.039062 1475.152344 1612.25 1474.878906 1600.210938 1473.914062 C 1589.140625 1472.910156 1580.351562 1472.863281 1573.941406 1473.777344 "/>
</svg>
